<?xml version="1.0" encoding="utf-8"?>
<!-- Generator: Adobe Illustrator 23.0.1, SVG Export Plug-In . SVG Version: 6.00 Build 0)  -->
<svg version="1.1" id="Layer_1" xmlns="http://www.w3.org/2000/svg" xmlns:xlink="http://www.w3.org/1999/xlink" x="0px" y="0px"
	 viewBox="0 0 91.7 91.7" style="enable-background:new 0 0 91.7 91.7;" xml:space="preserve">
<style type="text/css">
	.st0{fill:#FFFFFF;}
</style>
<path class="st0" d="M45.8,0C20.6,0,0,20.6,0,45.8s20.6,45.8,45.8,45.8s45.8-20.6,45.8-45.8S71.1,0,45.8,0z M45.8,86.3
	c-22.3,0-40.5-18.2-40.5-40.5S23.5,5.4,45.8,5.4c22.3,0,40.5,18.2,40.5,40.5S68.1,86.3,45.8,86.3z M59.3,53.1l3.8,3.8L45.8,74.1
	L28.5,56.9l3.8-3.8l10.8,10.8V21.3h5.4v42.6L59.3,53.1z"/>
</svg>
