<?xml version="1.0" encoding="utf-8"?>
<!-- Generator: Adobe Illustrator 23.0.1, SVG Export Plug-In . SVG Version: 6.00 Build 0)  -->
<svg version="1.1" id="Layer_1" xmlns="http://www.w3.org/2000/svg" xmlns:xlink="http://www.w3.org/1999/xlink" x="0px" y="0px"
	 viewBox="0 0 476.7 259.3" style="enable-background:new 0 0 476.7 259.3;" xml:space="preserve">
<style type="text/css">
	.st0{fill:#FFFFFF;}
</style>
<path class="st0" d="M236.1,0c-71.5,0-129.6,58.2-129.6,129.6s58.2,129.6,129.6,129.6s129.6-58.2,129.6-129.6S307.6,0,236.1,0z
	 M236.1,251.7C168.8,251.7,114,197,114,129.6S168.8,7.5,236.1,7.5s122.1,54.8,122.1,122.1S303.4,251.7,236.1,251.7z M11.9,0.9H0
	v257.5h11.9c17.8,0,32.3-14.5,32.3-32.3V33.2C44.3,15.4,29.7,0.9,11.9,0.9z M36.7,226c0,13.7-11.1,24.8-24.8,24.8H7.5V8.4h4.4
	c13.7,0,24.8,11.1,24.8,24.8V226z M425.8,102.6c28.1,0,50.9-22.8,50.9-50.9S453.9,0.9,425.8,0.9c-18.3,0-34.4,9.7-43.3,24.3V0.9
	h-7.5v257.5h7.5v-180c2.4,3.9,5.3,7.4,8.6,10.5l32.7,169.5h7.7L400,95.6C407.6,100.1,416.4,102.6,425.8,102.6z M382.5,51.8
	c0-23.9,19.4-43.3,43.3-43.3c23.9,0,43.3,19.4,43.3,43.3s-19.4,43.3-43.3,43.3C401.9,95.1,382.5,75.7,382.5,51.8z M475.7,233.2
	c0,3.7-2.1,5.2-7.2,5.2h-3.8v-4.1h5.2c1.5,0,2.1-0.4,2.1-1.2c0-0.7-0.6-1.1-2.1-1.1h-2.2c-9.8,0-8.3,6.4-19.1,6.4h-1.1
	c-5.1,0-7.2-1.7-7.2-5.3c0-3.7,2.1-5.2,7.2-5.2h3.9v4.1h-5.2c-1.5,0-2.1,0.4-2.1,1.1c0,0.8,0.6,1.2,2.1,1.2h2.2
	c9.8,0,8.3-6.4,19.1-6.4h1.1C473.6,227.8,475.7,229.6,475.7,233.2z M456.1,206.3c0-4-2.1-5.8-7-5.8h-6.4c-4.8,0-7,1.5-7,5.7v4.9
	h39.9V207h-19.6V206.3z M452.6,207h-13v-0.7c0-1.2,0.5-1.7,2.2-1.7h8.6c1.6,0,2.2,0.5,2.2,1.7V207z M430.8,183.5l44.9,2.2v-3.8
	L455,181v-2.7l20.6-0.8v-4l-44.9,2.2V183.5z M434.8,179.1l16.6-0.7v2.4l-16.6-0.7V179.1z M475.7,150.4c0,3.7-2.1,5.2-7.2,5.2h-37.1
	c-5.1,0-7.2-1.8-7.2-5.3c0-3.7,2.1-5.2,7.2-5.2h12.7v4.1h-14c-1.5,0-2.1,0.4-2.1,1.2c0,0.8,0.6,1.2,2.1,1.2h39.7
	c1.5,0,2.1-0.4,2.1-1.2c0-0.8-0.6-1.2-2.1-1.2h-14v-4.1h12.7C473.6,145.1,475.7,146.9,475.7,150.4z M471.8,119.1h3.9v8.4h-56.2v-8.1
	h3.9v4h20.9h1.4v-3.8h3.9v3.8h22.3V119.1z M475.7,254.6c0,2.1-1.7,3.8-3.8,3.8c-2.1,0-3.8-1.7-3.8-3.8c0-2.1,1.7-3.8,3.8-3.8
	C474,250.8,475.7,252.5,475.7,254.6z M97.4,0.9h7.5L86.5,258.4H71.7L53.2,0.9h7.5l17.9,249.9h0.8L97.4,0.9z"/>
</svg>
