<?xml version="1.0" encoding="utf-8"?>
<!-- Generator: Adobe Illustrator 23.0.1, SVG Export Plug-In . SVG Version: 6.00 Build 0)  -->
<svg version="1.1" id="Layer_1" xmlns="http://www.w3.org/2000/svg" xmlns:xlink="http://www.w3.org/1999/xlink" x="0px" y="0px"
	 viewBox="0 0 33.7 56.9" style="enable-background:new 0 0 33.7 56.9;" xml:space="preserve">
<style type="text/css">
	.st0{fill:#FFFFFF;}
</style>
<path class="st0" d="M16.9,0C7.6,0,0,7.6,0,16.9c0,3.8,1.3,7.3,3.4,10.2l13.4,29.8L30.3,27c2.1-2.8,3.4-6.3,3.4-10.2
	C33.7,7.6,26.2,0,16.9,0z M16.9,5.4c6.3,0,11.5,5.2,11.5,11.5s-5.2,11.5-11.5,11.5S5.4,23.2,5.4,16.9S10.5,5.4,16.9,5.4z M12,33
	c1.5,0.5,3.2,0.7,4.8,0.7c1.7,0,3.3-0.3,4.8-0.7l-4.8,10.8L12,33z"/>
</svg>
